<svg xmlns="http://www.w3.org/2000/svg" version="1.1" xmlns:xlink="http://www.w3.org/1999/xlink" xmlns:svgjs="http://svgjs.dev/svgjs" width="1000" height="1000" viewBox="0 0 1000 1000"><rect width="1000" height="1000" fill="#ffffff"></rect><g transform="matrix(0.7,0,0,0.7,149.57575757575762,282.1265587044535)"><svg viewBox="0 0 396 247" data-background-color="#ffffff" preserveAspectRatio="xMidYMid meet" height="623" width="1000" xmlns="http://www.w3.org/2000/svg" xmlns:xlink="http://www.w3.org/1999/xlink"><g id="tight-bounds" transform="matrix(1,0,0,1,0.2400000000000091,-0.09999999999999432)"><svg viewBox="0 0 395.52 247.2" height="247.2" width="395.52"><g><svg></svg></g><g><svg viewBox="0 0 395.52 247.2" height="247.2" width="395.52"><g transform="matrix(1,0,0,1,75.54432,78.8519583663417)"><svg viewBox="0 0 244.43135999999998 89.49608326731656" height="89.49608326731656" width="244.43135999999998"><g><svg viewBox="0 0 244.43135999999998 89.49608326731656" height="89.49608326731656" width="244.43135999999998"><g><svg viewBox="0 0 407.4720029947674 149.19177436610414" height="89.49608326731656" width="244.43135999999998"><g transform="matrix(1,0,0,1,163.04064299476747,47.60750542362658)"><svg viewBox="0 0 244.43135999999998 53.97676351885099" height="53.97676351885099" width="244.43135999999998"><g id="textblocktransform"><svg viewBox="0 0 244.43135999999998 53.97676351885099" height="53.97676351885099" width="244.43135999999998" id="textblock"><g><svg viewBox="0 0 244.43135999999998 53.97676351885099" height="53.97676351885099" width="244.43135999999998"><g transform="matrix(1,0,0,1,0,0)"><svg width="244.43135999999998" viewBox="3.5199999809265137 -56.150001525878906 299.1400146484375 66.05999755859375" height="53.97676351885099" data-palette-color="#f012be"><path d="M14.7 2.29L14.7 2.44Q14.7 3.22 14.16 3.86 13.62 4.49 13.23 5.08L13.23 5.08Q12.55 5.42 11.94 5.49 11.33 5.57 10.64 5.81L10.64 5.81Q10.4 5.86 10.11 6.15L10.11 6.15Q9.72 6.1 9.33 5.83 8.94 5.57 8.54 5.47L8.54 5.47Q8.01 5.27 7.15 5.22 6.3 5.18 5.91 4.74L5.91 4.74Q5.22 4.05 4.76 2.93 4.3 1.81 4.03 0.54 3.76-0.73 3.64-1.98 3.52-3.22 3.52-4.15L3.52-4.15Q3.52-5.71 3.71-7.28 3.91-8.84 4.3-10.3L4.3-10.3 4.3-10.55Q4.3-10.79 4.32-10.96 4.35-11.13 4.35-11.38L4.35-11.38Q4.35-11.52 4.32-11.67 4.3-11.82 4.15-11.91L4.15-11.91Q4.79-13.53 5.08-15.23 5.37-16.94 5.54-18.68 5.71-20.41 5.93-22.14 6.15-23.88 6.59-25.54L6.59-25.54Q6.54-25.83 6.52-26.17 6.49-26.51 6.49-26.81L6.49-26.81Q6.49-27.69 6.69-28.54 6.88-29.39 6.93-30.32L6.93-30.32Q6.98-30.62 6.93-30.93 6.88-31.25 6.88-31.59L6.88-31.59Q6.88-33.74 7.1-35.79 7.32-37.84 7.32-39.94L7.32-39.94Q7.32-41.06 7.15-42.11 6.98-43.16 6.98-44.24L6.98-44.24Q6.98-44.73 7.03-45.19 7.08-45.65 7.32-46.04L7.32-46.04Q8.4-46.78 9.86-46.78L9.86-46.78Q10.94-46.78 11.72-46.19L11.72-46.19Q11.67-46.09 11.67-45.9L11.67-45.9Q11.67-45.65 11.72-45.46 11.77-45.26 11.77-45.02L11.77-45.02 11.77-44.82Q11.77-44.73 11.72-44.63L11.72-44.63Q12.06-44.04 12.18-43.38 12.3-42.72 12.3-42.04L12.3-42.04Q12.3-41.41 12.26-40.8 12.21-40.19 12.21-39.55L12.21-39.55Q12.21-38.67 12.23-37.79 12.26-36.91 12.26-36.04L12.26-36.04Q12.26-33.69 12.04-31.42 11.82-29.15 11.72-26.81L11.72-26.81Q11.62-24.8 11.21-22.9 10.79-21 10.64-19.04L10.64-19.04Q10.6-18.65 10.62-18.29 10.64-17.92 10.64-17.48L10.64-17.48Q10.64-16.36 10.21-15.26 9.77-14.16 9.77-12.94L9.77-12.94Q9.77-12.35 9.96-11.91L9.96-11.91Q9.67-11.13 9.45-10.06 9.23-8.98 9.06-7.84 8.89-6.69 8.79-5.59 8.69-4.49 8.69-3.66L8.69-3.66Q8.69-2.49 8.98-1.29 9.28-0.1 9.96 0.88L9.96 0.88Q10.45 1.03 11.13 1.03 11.82 1.03 12.5 1.07 13.18 1.12 13.77 1.32 14.36 1.51 14.65 2.1L14.65 2.1Q14.7 2.2 14.7 2.29L14.7 2.29ZM51.46-32.08L51.46-32.08Q51.36-31.49 51.19-31.08 51.02-30.66 51.12-29.98L51.12-29.98Q50.63-29.93 50.36-29.66 50.1-29.39 49.92-29.05 49.75-28.71 49.58-28.34 49.41-27.98 49.17-27.69L49.17-27.69Q49.56-25.93 49.61-24.12 49.66-22.31 49.85-20.56L49.85-20.56Q50.1-18.31 50.61-16.14 51.12-13.96 51.12-11.72L51.12-11.72Q51.12-11.04 51.1-10.45 51.07-9.86 51.07-9.23L51.07-9.23Q51.07-8.84 51.1-8.42 51.12-8.01 51.12-7.62L51.12-7.62Q51.12-6.2 50.75-4.79 50.39-3.37 50.19-1.95L50.19-1.95Q49.61-1.42 49.19-0.78 48.78-0.15 48.34 0.39 47.9 0.93 47.31 1.34 46.73 1.76 45.85 1.9L45.85 1.9Q45.7 2.39 45.29 2.64 44.87 2.88 44.58 3.32L44.58 3.32 44.48 3.32Q43.26 3.32 42.38 2.98 41.5 2.64 40.74 2.2 39.99 1.76 39.21 1.27 38.43 0.78 37.4 0.49L37.4 0.49Q36.03-0.63 34.91-1.98 33.79-3.32 32.37-4.39L32.37-4.39Q32.03-5.37 31.47-6.01 30.91-6.64 30.37-7.47L30.37-7.47Q30.12-7.81 30-8.11 29.88-8.4 29.68-8.79L29.68-8.79Q29.54-9.18 29.22-9.33 28.9-9.47 28.66-9.67L28.66-9.67Q28.27-11.18 27.54-12.45 26.8-13.72 25.83-14.89L25.83-14.89Q25.53-14.36 25.36-13.75 25.19-13.13 25.05-12.52 24.9-11.91 24.68-11.3 24.46-10.69 24.12-10.21L24.12-10.21 24.12-10.06Q24.12-9.81 24.31-9.77 24.51-9.72 24.51-9.47L24.51-9.47Q24.51-9.42 24.48-9.38 24.46-9.33 24.46-9.28L24.46-9.28Q24.22-9.08 24.09-8.79 23.97-8.5 23.58-8.45L23.58-8.45Q23.63-8.2 23.63-7.96L23.63-7.96 23.63-7.52Q23.63-6.1 23.31-4.69 23-3.27 23-1.81L23-1.81 23-1.17Q23-0.83 23.04-0.54L23.04-0.54Q23.14-0.24 23.34 0.05 23.53 0.34 23.53 0.59L23.53 0.59Q23.53 0.93 23.24 1.22L23.24 1.22Q23.58 1.46 24.02 1.76 24.46 2.05 24.83 2.42 25.19 2.78 25.44 3.2 25.68 3.61 25.68 4.1L25.68 4.1Q25.68 4.93 25.14 5.27 24.61 5.62 23.85 5.81 23.09 6.01 22.29 6.18 21.48 6.35 20.94 6.79L20.94 6.79 20.8 6.79Q20.21 6.79 19.92 6.45 19.63 6.1 19.04 6.1L19.04 6.1Q18.11 4.59 17.77 2.71 17.43 0.83 17.43-0.88L17.43-0.88Q17.43-2.98 17.8-5.08 18.16-7.18 18.67-9.23 19.19-11.28 19.8-13.31 20.41-15.33 20.94-17.38L20.94-17.38 20.99-17.53Q20.99-17.77 20.87-17.87 20.75-17.97 20.75-18.16L20.75-18.16Q20.75-18.26 20.8-18.26L20.8-18.26Q20.94-18.75 21.12-19.19 21.29-19.63 21.38-20.17L21.38-20.17Q21.68-21.53 21.8-22.97 21.92-24.41 21.95-25.83 21.97-27.25 22.04-28.69 22.12-30.13 22.36-31.54L22.36-31.54Q22.75-31.93 23.09-32.37 23.43-32.81 23.97-33.15L23.97-33.15Q24.95-33.11 25.93-32.86 26.9-32.62 27.78-32.08L27.78-32.08Q28.37-29.98 28.59-27.88 28.81-25.78 29.34-23.68L29.34-23.68 29.34-23.54Q29.34-23.29 29.61-23.32 29.88-23.34 30.03-23.14L30.03-23.14Q29.93-23 29.9-22.8 29.88-22.61 29.88-22.41L29.88-22.41 29.88-21.58Q29.98-21.19 30.12-20.75 30.27-20.31 30.76-20.21L30.76-20.21Q31-18.65 31.49-17.33 31.98-16.02 32.61-14.79 33.25-13.57 33.98-12.38 34.71-11.18 35.5-9.86L35.5-9.86Q36.72-8.94 37.6-7.74 38.47-6.54 39.38-5.44 40.28-4.35 41.43-3.52 42.58-2.69 44.43-2.49L44.43-2.49Q44.68-2.69 44.77-3.03L44.77-3.03 45.02-3.71Q45.16-4.05 45.33-4.32 45.51-4.59 45.85-4.74L45.85-4.74Q45.94-6.1 46.07-7.52 46.19-8.94 46.68-10.21L46.68-10.21Q46.43-10.64 46.43-11.28L46.43-11.28Q46.43-11.77 46.51-12.21 46.58-12.65 46.58-13.09L46.58-13.09Q46.58-14.01 46.19-14.6L46.19-14.6Q46.19-14.94 46.24-15.31 46.29-15.67 46.53-16.02L46.53-16.02Q46.14-16.99 45.92-18.07 45.7-19.14 45.7-20.26L45.7-20.26Q45.7-20.9 45.85-21.58L45.85-21.58Q45.55-22.31 45.46-23.29L45.46-23.29 45.26-25.29Q45.16-26.32 44.97-27.2 44.77-28.08 44.24-28.61L44.24-28.61Q44.53-29.05 44.53-29.64L44.53-29.64Q44.53-30.62 44.24-31.49 43.94-32.37 43.94-33.35L43.94-33.35Q43.94-34.03 44.24-34.72L44.24-34.72Q45.31-34.67 46.36-34.5 47.41-34.33 48.44-34.33L48.44-34.33Q48.73-33.94 49.12-33.69 49.51-33.45 49.95-33.23 50.39-33.01 50.8-32.76 51.22-32.52 51.46-32.08ZM89.16-24.07L89.16-24.07Q89.16-23.58 88.81-23.44 88.47-23.29 88.47-22.85L88.47-22.85Q88.47-22.71 88.57-22.61 88.67-22.51 88.67-22.31L88.67-22.31 88.67-22.12Q88.08-19.29 86.98-17.19 85.88-15.09 84.42-13.33 82.95-11.57 81.12-10.01 79.29-8.45 77.19-6.74L77.19-6.74Q76.61-6.25 76-5.76 75.39-5.27 74.85-4.74L74.85-4.74 73.77-3.71Q73.73-3.66 73.24-3.49 72.75-3.32 72.65-3.27L72.65-3.27Q71.97-2.98 71.21-2.59 70.45-2.2 69.92-1.61L69.92-1.61Q68.94-1.61 68.26-1.32 67.57-1.03 66.74-0.54L66.74-0.54Q66.5-0.54 66.33-0.63 66.16-0.73 65.96-0.83 65.77-0.93 65.55-0.95 65.33-0.98 64.99-0.88L64.99-0.88Q64.4-1.86 63.72-2.54 63.03-3.22 61.86-3.37L61.86-3.37Q61.71-4.2 61.18-4.66 60.64-5.13 60.1-5.66L60.1-5.66Q60-5.96 59.96-6.35 59.91-6.74 59.76-7.08 59.61-7.42 59.37-7.67 59.13-7.91 58.69-7.91L58.69-7.91Q58.64-8.2 58.93-8.2 59.22-8.2 59.22-8.45L59.22-8.45Q59.22-8.74 59.13-9.03 59.03-9.33 59.03-9.67L59.03-9.67Q59.03-9.91 59.08-10.11 59.13-10.3 59.22-10.55L59.22-10.55Q59.08-11.87 59.08-13.23L59.08-13.23Q59.08-15.87 59.44-18.43 59.81-21 59.81-23.63L59.81-23.63Q59.81-24.8 59.69-25.98 59.57-27.15 59.22-28.27L59.22-28.27Q58.1-28.03 56.98-27.71 55.85-27.39 54.88-26.86L54.88-26.86Q54.34-27.2 53.73-27.27 53.12-27.34 52.53-27.54L52.53-27.54Q52.19-28.22 52.19-28.96L52.19-28.96Q52.19-29.64 52.44-30.27L52.44-30.27 52.92-31.54Q54.1-31.79 55.24-32.28 56.39-32.76 57.56-33.15L57.56-33.15Q57.95-33.25 58.56-33.4 59.17-33.54 59.42-33.64L59.42-33.64Q59.76-33.79 59.88-34.2 60-34.62 60.25-34.91L60.25-34.91 61.08-34.91Q61.37-34.91 61.71-34.89 62.06-34.86 62.35-34.72L62.35-34.72Q64.11-35.16 65.86-35.28 67.62-35.4 69.48-35.64L69.48-35.64Q69.67-35.64 70.06-35.69L70.06-35.69 70.89-35.84Q71.33-35.94 71.7-36.01 72.07-36.08 72.21-36.08L72.21-36.08Q72.36-36.08 72.36-35.94L72.36-35.94 73.19-35.94Q75.29-35.94 77.29-35.4L77.29-35.4 81.29-34.33Q82.12-33.64 82.95-33.01 83.78-32.37 84.81-31.88L84.81-31.88Q85.05-31.1 85.57-30.64 86.08-30.18 86.71-29.64L86.71-29.64Q86.96-29 87.37-28.3 87.79-27.59 88.18-26.86 88.57-26.12 88.86-25.42 89.16-24.71 89.16-24.07ZM84.61-23.34L84.61-23.34Q84.08-24.46 83.59-25.68 83.1-26.9 82.37-27.88L82.37-27.88Q81.49-28.13 80.59-28.49 79.68-28.86 79.34-29.79L79.34-29.79Q79.24-29.74 79-29.74L79-29.74Q78.56-29.74 78.22-30.08 77.88-30.42 77.44-30.52L77.44-30.52Q77.05-30.57 76.39-30.66 75.73-30.76 75-30.81 74.26-30.86 73.55-30.91 72.85-30.96 72.46-30.96L72.46-30.96Q72.07-30.96 71.65-30.93 71.24-30.91 70.8-30.86L70.8-30.86Q70.41-30.86 70.31-30.74 70.21-30.62 69.92-30.52L69.92-30.52Q69.67-30.62 69.38-30.62L69.38-30.62 68.79-30.62Q67.77-30.62 66.77-30.3 65.77-29.98 64.79-29.44L64.79-29.44 64.79-29.25Q64.79-28.86 65.13-28.81 65.47-28.76 65.52-28.42L65.52-28.42Q65.28-28.42 65.13-28.39 64.99-28.37 64.99-28.03L64.99-28.03Q64.99-27.54 65.11-26.95 65.23-26.37 65.23-25.78L65.23-25.78Q65.23-25.34 65.13-24.76 65.03-24.17 64.64-23.83L64.64-23.83Q65.13-23.39 65.13-22.66L65.13-22.66Q65.13-22.17 64.94-21.63 64.74-21.09 64.45-20.7L64.45-20.7Q64.35-18.65 64.06-16.55 63.76-14.45 63.76-12.4L63.76-12.4Q63.76-11.38 63.89-10.4 64.01-9.42 64.3-8.45L64.3-8.45Q64.84-7.91 65.45-7.62 66.06-7.32 66.74-7.03L66.74-7.03 66.74-6.88Q66.74-6.74 66.55-6.59 66.35-6.45 66.35-6.2L66.35-6.2Q66.35-6.01 66.55-6.01L66.55-6.01Q68.6-6.59 70.41-7.42 72.21-8.25 73.77-9.67L73.77-9.67Q73.92-9.81 74.07-9.81L74.07-9.81Q74.16-9.81 74.34-9.77 74.51-9.72 74.65-9.67L74.65-9.67 74.6-9.86Q74.6-10.16 74.78-10.4 74.95-10.64 75.19-10.84L75.19-10.84 75.68-11.28Q75.92-11.52 76.07-11.77L76.07-11.77Q76.46-11.87 76.63-12.16 76.8-12.45 77.24-12.45L77.24-12.45Q77.34-12.99 77.78-13.26 78.22-13.53 78.32-14.06L78.32-14.06Q79.29-14.6 80.05-15.38 80.81-16.16 81.46-17.04 82.12-17.92 82.71-18.87 83.3-19.82 83.93-20.7L83.93-20.7 83.93-20.9Q83.93-21.68 84.2-22.17 84.47-22.66 84.61-23.34ZM101.85-6.69L101.85-6.69Q101.6-6.3 101.26-5.98 100.92-5.66 100.63-5.32L100.63-5.32Q100.29-5.18 99.87-5.18 99.46-5.18 99.09-5.2 98.72-5.22 98.41-5.2 98.09-5.18 97.89-4.98L97.89-4.98Q97.5-5.08 97.31-5.35 97.11-5.62 96.62-5.66L96.62-5.66Q96.43-5.71 96.23-5.66L96.23-5.66Q95.5-6.49 94.89-7.42 94.28-8.35 93.74-9.18L93.74-9.18Q93.69-10.99 93.45-12.84L93.45-12.84Q93.4-13.28 93.3-13.72 93.21-14.16 93.16-14.55L93.16-14.55Q93.16-15.04 93.23-15.5 93.3-15.97 93.35-16.36L93.35-16.36Q93.55-17.77 93.79-19.14 94.04-20.51 94.23-21.92L94.23-21.92Q94.43-23.19 94.43-24.58 94.43-25.98 93.99-27.2L93.99-27.2 93.94-27.44Q94.04-27.83 94.16-28.1 94.28-28.37 94.33-28.71L94.33-28.71Q94.43-29.25 94.08-29.49L94.08-29.49Q94.23-29.88 94.57-30 94.91-30.13 94.96-30.57L94.96-30.57Q95.01-30.76 94.96-30.96L94.96-30.96Q95.35-31.1 95.77-31.23 96.18-31.35 96.57-31.25L96.57-31.25Q97.21-31.15 97.7-30.83 98.19-30.52 98.63-30.13L98.63-30.13Q99.41-27.78 99.26-25.17 99.11-22.56 98.77-19.92 98.43-17.29 98.33-14.77 98.23-12.26 99.11-10.11L99.11-10.11 99.21-10.06Q99.46-10.01 99.6-10.23 99.75-10.45 99.99-10.4L99.99-10.4Q100.19-10.3 100.24-10.3L100.24-10.3Q100.43-9.33 100.87-8.45 101.31-7.57 101.85-6.69ZM142.81-3.56L142.81-3.56Q142.67-2.88 142.2-2.47 141.74-2.05 141.1-1.81 140.47-1.56 139.81-1.49 139.15-1.42 138.61-1.42L138.61-1.42Q138.37-1.42 138.15-1.44 137.93-1.46 137.69-1.46L137.69-1.46Q137.44-1.46 137.44-1.22 137.44-0.98 137.2-0.88L137.2-0.88Q136.95-0.98 136.71-1.03 136.46-1.07 136.22-1.07L136.22-1.07Q135.88-1.07 135.56-1.03 135.24-0.98 134.95-0.98L134.95-0.98Q134.56-0.98 134.39-1.07 134.22-1.17 134.1-1.29 133.97-1.42 133.85-1.56 133.73-1.71 133.49-1.81L133.49-1.81Q133.14-1.95 132.92-1.86 132.7-1.76 132.27-2.15L132.27-2.15Q131.68-2.64 131.26-3.34 130.85-4.05 130.46-4.83 130.07-5.62 129.63-6.4 129.19-7.18 128.6-7.76L128.6-7.76 128.21-7.76Q127.33-7.76 126.99-7.03L126.99-7.03Q126.75-7.18 126.5-7.4 126.26-7.62 125.97-7.76L125.97-7.76Q124.84-7.42 123.62-7.18 122.4-6.93 121.18-6.93L121.18-6.93 120.5-6.93Q120.2-6.93 119.86-7.03L119.86-7.03Q119.37-6.84 118.98-6.57 118.59-6.3 118.11-6.3L118.11-6.3Q117.81-6.3 117.42-6.49L117.42-6.49Q117.13-6.49 117.15-6.25 117.18-6.01 116.84-6.01L116.84-6.01 116.4-6.01Q115.71-6.01 115.05-5.96 114.39-5.91 113.71-5.91L113.71-5.91Q112.78-5.91 111.81-6.15L111.81-6.15Q111.56-6.01 111.27-6.01L111.27-6.01Q111.07-5.91 110.98-5.69 110.88-5.47 110.78-5.3 110.68-5.13 110.51-5 110.34-4.88 110.05-4.93L110.05-4.93Q109.95-4.35 109.56-4 109.17-3.66 109.17-2.98L109.17-2.98Q108.63-2.69 108.29-2.25 107.95-1.81 107.61-1.32 107.27-0.83 106.9-0.39 106.53 0.05 106 0.29L106 0.29Q105.75 0.59 105.85 1.22L105.85 1.22Q105.31 1.66 104.53 2 103.75 2.34 103.07 2.34L103.07 2.34Q101.65 2.34 101.11 0.83L101.11 0.83Q101.11 0.34 101.19-0.22 101.26-0.78 101.41-1.29 101.55-1.81 101.85-2.22 102.14-2.64 102.68-2.83L102.68-2.83Q102.68-3.27 102.38-3.44 102.09-3.61 102.14-4.05L102.14-4.05Q103.46-4.69 104.43-5.71 105.41-6.74 106.22-7.89 107.02-9.03 107.85-10.21 108.68-11.38 109.71-12.3L109.71-12.3 109.71-13.33Q111.17-14.89 111.61-16.85L111.61-16.85Q112.15-16.94 112.32-17.33 112.49-17.72 112.49-18.26L112.49-18.26Q112.73-18.26 112.81-18.48 112.88-18.7 113.22-18.6L113.22-18.6Q113.66-19.78 114.2-20.75 114.74-21.73 115.27-22.73 115.81-23.73 116.23-24.8 116.64-25.88 116.84-27.2L116.84-27.2Q117.52-27.25 117.59-27.86 117.67-28.47 117.76-28.96L117.76-28.96Q118.5-29.64 118.86-30.57 119.23-31.49 119.52-32.5 119.81-33.5 120.18-34.5 120.55-35.5 121.23-36.28L121.23-36.28 121.23-36.43Q121.23-36.67 121.03-36.74 120.84-36.82 120.84-37.06L120.84-37.06Q120.89-37.11 120.89-37.16L120.89-37.16Q121.47-37.4 121.77-37.96 122.06-38.53 122.65-38.77L122.65-38.77Q123.67-37.94 124.45-37.77 125.23-37.6 126.5-37.5L126.5-37.5Q127.14-36.82 127.21-35.86 127.28-34.91 127.53-33.98L127.53-33.98Q127.92-32.42 128.38-30.93 128.85-29.44 129.09-27.88L129.09-27.88Q129.24-26.95 129.63-26.12 130.02-25.29 130.17-24.41L130.17-24.41Q130.26-23.73 130.17-22.88 130.07-22.02 130.36-21.39L130.36-21.39 130.7-20.61Q130.95-20.07 131.12-19.48 131.29-18.9 131.44-18.31L131.44-18.31Q131.83-16.85 132.14-15.16 132.46-13.48 133.14-12.11L133.14-12.11Q133.39-11.62 133.9-11.43 134.41-11.23 135.05-11.16 135.68-11.08 136.29-11.11 136.9-11.13 137.34-11.13L137.34-11.13 137.83-11.13Q138.12-11.13 138.42-11.04L138.42-11.04Q138.61-10.64 138.61-10.35L138.61-10.35Q138.61-9.77 138.22-9.42 137.83-9.08 137.83-8.64L137.83-8.64Q137.83-8.4 138.03-8.11L138.03-8.11Q137.83-8.15 137.44-8.15L137.44-8.15Q136.32-8.15 135.24-7.76L135.24-7.76Q135.63-6.93 136.29-6.37 136.95-5.81 137.69-5.32L137.69-5.32Q138.17-5.71 138.71-5.71L138.71-5.71Q139.3-5.71 139.81-5.44 140.32-5.18 140.91-5.18L140.91-5.18Q141.35-5.18 141.54-5.32L141.54-5.32Q141.93-4.88 142.18-4.42 142.42-3.96 142.81-3.56ZM127.53-11.38L127.53-11.38Q127.43-12.21 127.21-12.57 126.99-12.94 126.85-13.48L126.85-13.48Q126.65-14.16 126.58-14.94 126.5-15.72 126.36-16.46L126.36-16.46Q126.02-18.12 125.6-19.78 125.19-21.44 124.55-23L124.55-23Q124.75-23.29 124.75-23.54L124.75-23.54 124.75-23.68Q124.31-24.17 124.11-24.88 123.92-25.59 123.74-26.29 123.57-27 123.31-27.61 123.04-28.22 122.45-28.61L122.45-28.61Q122.3-28.32 122.3-27.93L122.3-27.93Q122.3-27.59 122.38-27.29 122.45-27 122.45-26.66L122.45-26.66Q121.96-26.42 121.74-25.9 121.52-25.39 121.03-25.1L121.03-25.1Q120.64-23.54 119.91-22.14 119.18-20.75 118.37-19.38 117.57-18.02 116.84-16.63 116.1-15.23 115.66-13.72L115.66-13.72Q115.03-13.28 114.81-12.6 114.59-11.91 114.59-11.23L114.59-11.23Q115.03-10.99 115.59-10.96 116.15-10.94 116.69-10.94 117.23-10.94 117.71-10.84 118.2-10.74 118.59-10.35L118.59-10.35Q119.23-10.55 119.99-10.62 120.74-10.69 121.23-11.04L121.23-11.04Q122.21-10.69 123.33-10.69L123.33-10.69Q123.92-10.69 124.48-10.79 125.04-10.89 125.58-11.04L125.58-11.04Q126.02-10.94 126.26-10.72 126.5-10.5 126.99-10.55L126.99-10.55Q127.24-10.74 127.28-10.96 127.33-11.18 127.53-11.38ZM190.47-44.19L190.47-44.19Q190.47-42.48 189.83-40.89 189.2-39.31 188.9-37.65L188.9-37.65Q187.83-36.23 186.9-34.72 185.97-33.2 185-31.69 184.02-30.18 182.95-28.78 181.87-27.39 180.51-26.27L180.51-26.27Q180.55-26.22 180.55-26.07L180.55-26.07Q180.55-25.78 180.29-25.61 180.02-25.44 180.11-25.2L180.11-25.2Q178.89-23.93 177.72-22.71 176.55-21.48 175.57-19.97L175.57-19.97Q174.5-19.43 173.82-18.21L173.82-18.21Q173.52-18.21 173.38-18.09 173.23-17.97 172.99-17.87L172.99-17.87Q171.42-15.97 169.71-14.26 168.01-12.55 166.05-11.13L166.05-11.13Q165.32-10.6 164.59-10.16 163.85-9.72 163.17-9.23L163.17-9.23Q162.73-8.94 162.32-8.54 161.9-8.15 161.46-7.81L161.46-7.81Q160.05-6.59 158.68-5.79 157.31-4.98 155.46-4.69L155.46-4.69Q155.31-4.15 155.31-3.52L155.31-3.52 155.31-2.34Q155.31-1.76 155.26-1.15 155.21-0.54 154.92 0L154.92 0 154.92 0.15Q154.92 0.63 155.16 1.1 155.41 1.56 155.41 2.05L155.41 2.05Q155.41 2.39 155.07 2.64L155.07 2.64 156.34 2.64Q156.34 3.32 156.75 3.81 157.17 4.3 157.17 4.54L157.17 4.54Q157.17 5.37 156.99 6.37 156.82 7.37 155.99 7.71L155.99 7.71 155.99 8.01Q155.99 8.5 155.9 8.96 155.8 9.42 155.46 9.86L155.46 9.86Q155.16 9.86 154.89 9.89 154.63 9.91 154.38 9.91L154.38 9.91Q152.33 9.91 150.72 8.94L150.72 8.94Q150.18 7.67 150.01 6.32 149.84 4.98 149.84 3.61L149.84 3.61Q149.84 0.93 150.23-1.71 150.62-4.35 150.87-6.98L150.87-6.98 151.6-8.4Q151.7-9.77 151.94-11.16 152.18-12.55 152.43-13.92 152.67-15.28 152.84-16.65 153.01-18.02 152.97-19.38L152.97-19.38Q153.36-20.21 153.53-21.14 153.7-22.07 153.7-22.95L153.7-22.95Q153.7-23.44 153.65-23.93 153.6-24.41 153.36-24.85L153.36-24.85Q153.65-25.05 153.75-25.34 153.84-25.63 154.04-25.88L154.04-25.88Q154.19-27.78 154.28-29.66 154.38-31.54 154.38-33.4L154.38-33.4Q154.38-34.42 154.33-35.42 154.28-36.43 154.19-37.45L154.19-37.45Q154.14-37.84 154.02-38.38 153.89-38.92 153.89-39.21L153.89-39.21Q153.89-39.6 153.94-40.01 153.99-40.43 153.99-40.87L153.99-40.87Q153.99-41.36 153.89-41.82 153.8-42.29 153.55-42.68L153.55-42.68Q151.21-41.99 149.35-40.84 147.5-39.7 145.59-38.28L145.59-38.28Q144.81-37.74 143.88-37.01 142.96-36.28 142.13-35.89L142.13-35.89Q141.98-35.79 141.76-35.77 141.54-35.74 141.39-35.74L141.39-35.74Q140.86-35.74 140.42-35.82 139.98-35.89 139.54-35.89L139.54-35.89Q138.85-36.57 137.93-36.96L137.93-36.96Q137.78-37.55 137.78-38.23L137.78-38.23Q137.78-38.92 137.9-39.55 138.02-40.19 138.27-40.82L138.27-40.82Q138.85-41.02 139.51-41.26 140.17-41.5 140.78-41.82 141.39-42.14 141.88-42.55 142.37-42.97 142.66-43.6L142.66-43.6Q142.96-43.46 143.2-43.46L143.2-43.46Q143.44-43.46 143.64-43.51 143.84-43.55 144.08-43.6L144.08-43.6Q144.96-44.14 145.86-44.73 146.76-45.31 147.74-45.7L147.74-45.7Q148.03-45.8 148.08-45.95 148.13-46.09 148.08-46.39L148.08-46.39Q149.21-46.73 150.43-47.19 151.65-47.66 152.48-48.49L152.48-48.49 153.36-48.49Q154.09-49.02 154.92-49.37 155.75-49.71 156.6-50.02 157.46-50.34 158.29-50.71 159.12-51.07 159.85-51.66L159.85-51.66Q160.14-51.76 160.34-51.76L160.34-51.76Q160.58-51.76 160.88-51.66L160.88-51.66Q161.36-51.9 161.71-52.25L161.71-52.25 162.49-53.03Q163.27-53.03 163.9-53.17 164.54-53.32 165.12-53.56 165.71-53.81 166.27-54.13 166.83-54.44 167.52-54.79L167.52-54.79Q167.81-54.69 167.96-54.57 168.1-54.44 168.44-54.44L168.44-54.44Q168.93-54.79 169.49-54.96 170.06-55.13 170.64-55.22 171.23-55.32 171.79-55.47 172.35-55.62 172.79-56.01L172.79-56.01Q174.35-56.01 175.94-56.08 177.53-56.15 179.09-56.15L179.09-56.15Q181.34-56.15 183.65-55.81 185.97-55.47 187.83-54.1L187.83-54.1Q188.56-52.34 189.93-51.12L189.93-51.12Q190.03-50.59 190.15-50.12 190.27-49.66 190.47-49.22L190.47-49.22Q190.12-48.49 190.12-47.61L190.12-47.61Q190.12-46.73 190.3-45.87 190.47-45.02 190.47-44.19ZM185.93-45.36L185.93-45.36Q185.68-45.8 185.61-46.36 185.53-46.92 185.58-47.46L185.58-47.46Q184.95-47.95 184.61-48.73 184.26-49.51 183.63-49.9L183.63-49.9Q183.19-50.15 182.38-50.2 181.58-50.24 181.04-50.39L181.04-50.39Q180.41-50.59 180.19-50.78 179.97-50.98 179.28-50.98L179.28-50.98Q178.7-50.98 178.11-50.85 177.53-50.73 176.94-50.73L176.94-50.73Q176.45-50.73 176.01-50.93 175.57-51.12 175.09-51.12L175.09-51.12Q174.55-51.12 174.08-50.78 173.62-50.44 172.99-50.59L172.99-50.59Q172.69-50.34 172.67-50.2 172.64-50.05 172.59-49.98 172.55-49.9 172.35-49.9L172.35-49.9 171.67-49.9Q170.64-49.9 169.59-49.61 168.54-49.32 167.71-48.63L167.71-48.63Q167.57-48.68 167.44-48.71 167.32-48.73 167.18-48.73L167.18-48.73Q166.34-48.73 165.59-48.27 164.83-47.8 163.9-47.8L163.9-47.8Q163.32-47.22 162.49-46.88 161.66-46.53 160.8-46.22 159.95-45.9 159.22-45.48 158.48-45.07 158.09-44.29L158.09-44.29Q158.04-43.9 158.34-43.8 158.63-43.7 158.63-43.31L158.63-43.31Q158.63-42.97 158.51-42.48 158.39-41.99 158.39-41.5L158.39-41.5Q158.39-40.38 158.63-39.31 158.87-38.23 159.12-37.11L159.12-37.11Q158.87-36.96 158.78-36.67 158.68-36.38 158.43-36.23L158.43-36.23Q159.12-34.18 159.12-32.03L159.12-32.03Q159.12-30.32 158.75-28.69 158.39-27.05 158.24-25.34L158.24-25.34 158.24-25.29Q158.24-25 158.43-24.9 158.63-24.8 158.63-24.56L158.63-24.56Q158.63-24.41 158.58-24.32L158.58-24.32Q158.04-21 157.53-17.68 157.02-14.36 156.68-10.99L156.68-10.99 157.07-10.99Q158.34-10.99 159.34-11.74 160.34-12.5 161.02-13.43L161.02-13.43 161.8-13.43Q165.32-16.5 168.57-19.78 171.81-23.05 174.74-26.81L174.74-26.81Q175.13-26.81 175.28-27 175.43-27.2 175.77-27.29L175.77-27.29Q176.79-28.71 177.92-30.1 179.04-31.49 180.36-32.76L180.36-32.76Q180.41-33.25 180.63-33.64 180.85-34.03 181.09-34.38 181.34-34.72 181.53-35.11 181.73-35.5 181.73-36.04L181.73-36.04Q181.97-36.13 182.26-36.25 182.56-36.38 182.8-36.62L182.8-36.62Q182.9-37.11 183.14-37.5 183.39-37.89 183.39-38.38L183.39-38.38Q183.39-38.57 183.29-38.87L183.29-38.87Q184.07-39.21 184.51-39.99 184.95-40.77 185.19-41.72 185.44-42.68 185.56-43.65 185.68-44.63 185.93-45.36ZM218.54-31.05L218.54-31.05 218.54-30.86Q218.2-30.76 218.2-30.37L218.2-30.37Q217.66-30.13 217.07-30 216.49-29.88 215.95-29.64L215.95-29.64Q215.41-29.69 214.85-29.71 214.29-29.74 213.75-29.74L213.75-29.74Q212.29-29.74 210.82-29.64 209.36-29.54 207.9-29.64L207.9-29.64Q207.21-29.25 206.41-29.03 205.6-28.81 204.87-28.81L204.87-28.81Q204.28-28.81 203.84-28.96L203.84-28.96Q202.67-28.37 201.28-27.98 199.89-27.59 198.47-27.22 197.06-26.86 195.76-26.39 194.47-25.93 193.49-25.1L193.49-25.1Q193.39-24.41 193.34-23.75 193.3-23.1 193.3-22.46L193.3-22.46Q193.3-21.78 193.37-21.19 193.44-20.61 193.69-20.02L193.69-20.02Q193.93-19.92 194.25-19.87 194.57-19.82 194.81-19.82L194.81-19.82Q195.05-19.82 195.3-19.9 195.54-19.97 195.64-20.21L195.64-20.21Q196.37-20.31 197.1-20.29 197.84-20.26 198.57-20.26L198.57-20.26Q199.3-20.26 200.01-20.31 200.72-20.36 201.4-20.56L201.4-20.56Q202.18-20.75 202.94-20.8 203.7-20.85 204.43-20.9 205.16-20.95 205.94-21.07 206.72-21.19 207.55-21.58L207.55-21.58Q208.19-21.34 208.85-21.34 209.51-21.34 210.14-21.24L210.14-21.24Q210.48-21 210.7-20.7 210.92-20.41 210.92-20.02L210.92-20.02Q210.92-19.34 210.43-18.65 209.95-17.97 209.65-17.38L209.65-17.38 209.12-17.38Q207.94-17.38 206.85-17.07 205.75-16.75 204.65-16.33 203.55-15.92 202.45-15.6 201.35-15.28 200.18-15.28L200.18-15.28Q199.99-15.28 199.96-15.06 199.94-14.84 199.84-14.75L199.84-14.75Q199.59-14.79 199.11-14.79L199.11-14.79Q197.98-14.79 196.96-14.55 195.93-14.31 194.86-14.31L194.86-14.31Q194.57-14.31 194.27-14.33 193.98-14.36 193.69-14.4L193.69-14.4Q193.44-14.01 193.05-13.89 192.66-13.77 192.32-13.48L192.32-13.48Q192.17-13.04 192.15-12.4 192.12-11.77 192.1-11.11 192.07-10.45 191.98-9.86 191.88-9.28 191.59-8.94L191.59-8.94Q191.64-8.69 191.98-8.76 192.32-8.84 192.32-8.45L192.32-8.45Q192.32-8.01 192.22-7.52 192.12-7.03 192.12-6.54L192.12-6.54Q192.12-5.62 192.34-4.52 192.56-3.42 193.03-2.49 193.49-1.56 194.27-0.95 195.05-0.34 196.23-0.34L196.23-0.34Q197.01-0.34 197.69-0.63 198.37-0.93 198.81-1.61L198.81-1.61 199.06-1.66Q199.25-1.66 199.42-1.61 199.59-1.56 199.79-1.56L199.79-1.56Q200.08-1.56 200.55-1.93 201.01-2.29 201.57-2.78 202.13-3.27 202.72-3.74 203.31-4.2 203.84-4.39L203.84-4.39Q204.18-5.08 204.5-5.76 204.82-6.45 205.45-6.84L205.45-6.84 205.45-8.25Q205.94-8.79 206.5-9.23 207.07-9.67 207.36-10.35L207.36-10.35Q207.6-10.25 207.82-10.21 208.04-10.16 208.29-10.16L208.29-10.16Q208.53-10.16 208.8-10.21 209.07-10.25 209.31-10.35L209.31-10.35Q209.7-9.81 209.92-9.16 210.14-8.5 210.48-7.91L210.48-7.91Q210.04-7.03 209.46-5.81 208.87-4.59 208.19-3.37 207.5-2.15 206.75-1.05 205.99 0.05 205.26 0.63L205.26 0.63Q205.11 0.78 204.62 0.98L204.62 0.98Q204.09 1.37 203.65 1.73 203.21 2.1 202.82 2.59L202.82 2.59Q201.4 3.03 200.11 3.76 198.81 4.49 197.54 5.18L197.54 5.18Q196.96 5.03 196.27 5.03L196.27 5.03Q195.69 5.03 195.1 5.1 194.52 5.18 193.83 5.18L193.83 5.18Q193.64 4.93 193.27 4.86 192.9 4.79 193 4.35L193 4.35Q191.34 4.25 190.32 3.44 189.29 2.64 188.58 1.46 187.88 0.29 187.44-1.07 187-2.44 186.51-3.71L186.51-3.71 186.51-3.86Q186.51-4.1 186.7-4.15 186.9-4.2 186.9-4.44L186.9-4.44Q186.9-4.54 186.85-4.59L186.85-4.59Q186.7-5.13 186.61-5.52 186.51-5.91 186.51-6.45L186.51-6.45Q186.51-7.23 186.61-7.98 186.7-8.74 186.7-9.52L186.7-9.52Q186.7-10.3 186.51-10.89L186.51-10.89Q186.7-11.13 186.83-11.55 186.95-11.96 187-12.4 187.05-12.84 187.07-13.28 187.09-13.72 187.19-14.06L187.19-14.06Q187-14.6 186.85-15.01 186.7-15.43 186.7-16.02L186.7-16.02 186.7-16.36Q187.19-17.19 187.53-18.07 187.88-18.95 188.27-19.87L188.27-19.87 188.27-20.02Q188.27-21.44 188.17-22.85 188.07-24.27 188.07-25.68L188.07-25.68 188.07-26.61Q188.07-27.1 188.12-27.54L188.12-27.54Q188.51-27.73 188.71-28.08 188.9-28.42 189.29-28.61L189.29-28.61 190.9-28.61 191.2-29.1Q191.34-29.35 191.39-29.64L191.39-29.64Q191.93-29.79 192.44-30.05 192.95-30.32 193.39-30.62L193.39-30.62Q194.08-31.01 194.64-31.32 195.2-31.64 195.76-31.86 196.32-32.08 196.96-32.23 197.59-32.37 198.42-32.47L198.42-32.47Q198.81-32.47 198.94-32.62 199.06-32.76 199.3-32.96L199.3-32.96Q199.89-32.86 200.47-32.79 201.06-32.71 201.65-32.71L201.65-32.71Q202.82-32.71 203.84-33.15L203.84-33.15Q205.31-33.15 206.75-33.2 208.19-33.25 209.65-33.25L209.65-33.25Q210.92-33.25 212.19-33.15 213.46-33.06 214.68-32.81L214.68-32.81Q215.12-32.96 215.66-32.96L215.66-32.96Q216.24-32.96 216.86-32.84 217.47-32.71 218.05-32.81L218.05-32.81Q218.1-32.28 218.32-31.91 218.54-31.54 218.54-31.05ZM249.01-24.07L249.01-24.07Q249.01-23.58 248.66-23.44 248.32-23.29 248.32-22.85L248.32-22.85Q248.32-22.71 248.42-22.61 248.52-22.51 248.52-22.31L248.52-22.31 248.52-22.12Q247.93-19.29 246.83-17.19 245.73-15.09 244.27-13.33 242.8-11.57 240.97-10.01 239.14-8.45 237.04-6.74L237.04-6.74Q236.46-6.25 235.85-5.76 235.24-5.27 234.7-4.74L234.7-4.74 233.63-3.71Q233.58-3.66 233.09-3.49 232.6-3.32 232.5-3.27L232.5-3.27Q231.82-2.98 231.06-2.59 230.3-2.2 229.77-1.61L229.77-1.61Q228.79-1.61 228.11-1.32 227.42-1.03 226.59-0.54L226.59-0.54Q226.35-0.54 226.18-0.63 226.01-0.73 225.81-0.83 225.62-0.93 225.4-0.95 225.18-0.98 224.84-0.88L224.84-0.88Q224.25-1.86 223.57-2.54 222.88-3.22 221.71-3.37L221.71-3.37Q221.56-4.2 221.03-4.66 220.49-5.13 219.95-5.66L219.95-5.66Q219.86-5.96 219.81-6.35 219.76-6.74 219.61-7.08 219.46-7.42 219.22-7.67 218.98-7.91 218.54-7.91L218.54-7.91Q218.49-8.2 218.78-8.2 219.07-8.2 219.07-8.45L219.07-8.45Q219.07-8.74 218.98-9.03 218.88-9.33 218.88-9.67L218.88-9.67Q218.88-9.91 218.93-10.11 218.98-10.3 219.07-10.55L219.07-10.55Q218.93-11.87 218.93-13.23L218.93-13.23Q218.93-15.87 219.29-18.43 219.66-21 219.66-23.63L219.66-23.63Q219.66-24.8 219.54-25.98 219.42-27.15 219.07-28.27L219.07-28.27Q217.95-28.03 216.83-27.71 215.71-27.39 214.73-26.86L214.73-26.86Q214.19-27.2 213.58-27.27 212.97-27.34 212.38-27.54L212.38-27.54Q212.04-28.22 212.04-28.96L212.04-28.96Q212.04-29.64 212.29-30.27L212.29-30.27 212.78-31.54Q213.95-31.79 215.09-32.28 216.24-32.76 217.41-33.15L217.41-33.15Q217.8-33.25 218.42-33.4 219.03-33.54 219.27-33.64L219.27-33.64Q219.61-33.79 219.73-34.2 219.86-34.62 220.1-34.91L220.1-34.91 220.93-34.91Q221.22-34.91 221.56-34.89 221.91-34.86 222.2-34.72L222.2-34.72Q223.96-35.16 225.71-35.28 227.47-35.4 229.33-35.64L229.33-35.64Q229.52-35.64 229.91-35.69L229.91-35.69 230.74-35.84Q231.18-35.94 231.55-36.01 231.92-36.08 232.06-36.08L232.06-36.08Q232.21-36.08 232.21-35.94L232.21-35.94 233.04-35.94Q235.14-35.94 237.14-35.4L237.14-35.4 241.14-34.33Q241.97-33.64 242.8-33.01 243.63-32.37 244.66-31.88L244.66-31.88Q244.9-31.1 245.42-30.64 245.93-30.18 246.56-29.64L246.56-29.64Q246.81-29 247.22-28.3 247.64-27.59 248.03-26.86 248.42-26.12 248.71-25.42 249.01-24.71 249.01-24.07ZM244.46-23.34L244.46-23.34Q243.93-24.46 243.44-25.68 242.95-26.9 242.22-27.88L242.22-27.88Q241.34-28.13 240.44-28.49 239.53-28.86 239.19-29.79L239.19-29.79Q239.09-29.74 238.85-29.74L238.85-29.74Q238.41-29.74 238.07-30.08 237.73-30.42 237.29-30.52L237.29-30.52Q236.9-30.57 236.24-30.66 235.58-30.76 234.85-30.81 234.11-30.86 233.41-30.91 232.7-30.96 232.31-30.96L232.31-30.96Q231.92-30.96 231.5-30.93 231.09-30.91 230.65-30.86L230.65-30.86Q230.26-30.86 230.16-30.74 230.06-30.62 229.77-30.52L229.77-30.52Q229.52-30.62 229.23-30.62L229.23-30.62 228.64-30.62Q227.62-30.62 226.62-30.3 225.62-29.98 224.64-29.44L224.64-29.44 224.64-29.25Q224.64-28.86 224.98-28.81 225.32-28.76 225.37-28.42L225.37-28.42Q225.13-28.42 224.98-28.39 224.84-28.37 224.84-28.03L224.84-28.03Q224.84-27.54 224.96-26.95 225.08-26.37 225.08-25.78L225.08-25.78Q225.08-25.34 224.98-24.76 224.88-24.17 224.49-23.83L224.49-23.83Q224.98-23.39 224.98-22.66L224.98-22.66Q224.98-22.17 224.79-21.63 224.59-21.09 224.3-20.7L224.3-20.7Q224.2-18.65 223.91-16.55 223.62-14.45 223.62-12.4L223.62-12.4Q223.62-11.38 223.74-10.4 223.86-9.42 224.15-8.45L224.15-8.45Q224.69-7.91 225.3-7.62 225.91-7.32 226.59-7.03L226.59-7.03 226.59-6.88Q226.59-6.74 226.4-6.59 226.2-6.45 226.2-6.2L226.2-6.2Q226.2-6.01 226.4-6.01L226.4-6.01Q228.45-6.59 230.26-7.42 232.06-8.25 233.63-9.67L233.63-9.67Q233.77-9.81 233.92-9.81L233.92-9.81Q234.02-9.81 234.19-9.77 234.36-9.72 234.5-9.67L234.5-9.67 234.46-9.86Q234.46-10.16 234.63-10.4 234.8-10.64 235.04-10.84L235.04-10.84 235.53-11.28Q235.77-11.52 235.92-11.77L235.92-11.77Q236.31-11.87 236.48-12.16 236.65-12.45 237.09-12.45L237.09-12.45Q237.19-12.99 237.63-13.26 238.07-13.53 238.17-14.06L238.17-14.06Q239.14-14.6 239.9-15.38 240.66-16.16 241.32-17.04 241.97-17.92 242.56-18.87 243.15-19.82 243.78-20.7L243.78-20.7 243.78-20.9Q243.78-21.68 244.05-22.17 244.32-22.66 244.46-23.34ZM261.7-6.69L261.7-6.69Q261.45-6.3 261.11-5.98 260.77-5.66 260.48-5.32L260.48-5.32Q260.14-5.18 259.72-5.18 259.31-5.18 258.94-5.2 258.57-5.22 258.26-5.2 257.94-5.18 257.74-4.98L257.74-4.98Q257.35-5.08 257.16-5.35 256.96-5.62 256.47-5.66L256.47-5.66Q256.28-5.71 256.08-5.66L256.08-5.66Q255.35-6.49 254.74-7.42 254.13-8.35 253.59-9.18L253.59-9.18Q253.54-10.99 253.3-12.84L253.3-12.84Q253.25-13.28 253.15-13.72 253.06-14.16 253.01-14.55L253.01-14.55Q253.01-15.04 253.08-15.5 253.15-15.97 253.2-16.36L253.2-16.36Q253.4-17.77 253.64-19.14 253.89-20.51 254.08-21.92L254.08-21.92Q254.28-23.19 254.28-24.58 254.28-25.98 253.84-27.2L253.84-27.2 253.79-27.44Q253.89-27.83 254.01-28.1 254.13-28.37 254.18-28.71L254.18-28.71Q254.28-29.25 253.94-29.49L253.94-29.49Q254.08-29.88 254.42-30 254.77-30.13 254.81-30.57L254.81-30.57Q254.86-30.76 254.81-30.96L254.81-30.96Q255.2-31.1 255.62-31.23 256.03-31.35 256.43-31.25L256.43-31.25Q257.06-31.15 257.55-30.83 258.04-30.52 258.48-30.13L258.48-30.13Q259.26-27.78 259.11-25.17 258.96-22.56 258.62-19.92 258.28-17.29 258.18-14.77 258.09-12.26 258.96-10.11L258.96-10.11 259.06-10.06Q259.31-10.01 259.45-10.23 259.6-10.45 259.84-10.4L259.84-10.4Q260.04-10.3 260.09-10.3L260.09-10.3Q260.28-9.33 260.72-8.45 261.16-7.57 261.7-6.69ZM302.66-3.56L302.66-3.56Q302.52-2.88 302.05-2.47 301.59-2.05 300.95-1.81 300.32-1.56 299.66-1.49 299-1.42 298.46-1.42L298.46-1.42Q298.22-1.42 298-1.44 297.78-1.46 297.54-1.46L297.54-1.46Q297.29-1.46 297.29-1.22 297.29-0.98 297.05-0.88L297.05-0.88Q296.8-0.98 296.56-1.03 296.32-1.07 296.07-1.07L296.07-1.07Q295.73-1.07 295.41-1.03 295.09-0.98 294.8-0.98L294.8-0.98Q294.41-0.98 294.24-1.07 294.07-1.17 293.95-1.29 293.83-1.42 293.7-1.56 293.58-1.71 293.34-1.81L293.34-1.81Q293-1.95 292.78-1.86 292.56-1.76 292.12-2.15L292.12-2.15Q291.53-2.64 291.12-3.34 290.7-4.05 290.31-4.83 289.92-5.62 289.48-6.4 289.04-7.18 288.45-7.76L288.45-7.76 288.06-7.76Q287.18-7.76 286.84-7.03L286.84-7.03Q286.6-7.18 286.35-7.4 286.11-7.62 285.82-7.76L285.82-7.76Q284.69-7.42 283.47-7.18 282.25-6.93 281.03-6.93L281.03-6.93 280.35-6.93Q280.06-6.93 279.71-7.03L279.71-7.03Q279.23-6.84 278.83-6.57 278.44-6.3 277.96-6.3L277.96-6.3Q277.66-6.3 277.27-6.49L277.27-6.49Q276.98-6.49 277-6.25 277.03-6.01 276.69-6.01L276.69-6.01 276.25-6.01Q275.56-6.01 274.9-5.96 274.25-5.91 273.56-5.91L273.56-5.91Q272.63-5.91 271.66-6.15L271.66-6.15Q271.41-6.01 271.12-6.01L271.12-6.01Q270.92-5.91 270.83-5.69 270.73-5.47 270.63-5.3 270.53-5.13 270.36-5 270.19-4.88 269.9-4.93L269.9-4.93Q269.8-4.35 269.41-4 269.02-3.66 269.02-2.98L269.02-2.98Q268.48-2.69 268.14-2.25 267.8-1.81 267.46-1.32 267.12-0.83 266.75-0.39 266.38 0.05 265.85 0.29L265.85 0.29Q265.6 0.59 265.7 1.22L265.7 1.22Q265.16 1.66 264.38 2 263.6 2.34 262.92 2.34L262.92 2.34Q261.5 2.34 260.96 0.83L260.96 0.83Q260.96 0.34 261.04-0.22 261.11-0.78 261.26-1.29 261.4-1.81 261.7-2.22 261.99-2.64 262.53-2.83L262.53-2.83Q262.53-3.27 262.23-3.44 261.94-3.61 261.99-4.05L261.99-4.05Q263.31-4.69 264.28-5.71 265.26-6.74 266.07-7.89 266.87-9.03 267.7-10.21 268.53-11.38 269.56-12.3L269.56-12.3 269.56-13.33Q271.02-14.89 271.46-16.85L271.46-16.85Q272-16.94 272.17-17.33 272.34-17.72 272.34-18.26L272.34-18.26Q272.58-18.26 272.66-18.48 272.73-18.7 273.07-18.6L273.07-18.6Q273.51-19.78 274.05-20.75 274.59-21.73 275.12-22.73 275.66-23.73 276.08-24.8 276.49-25.88 276.69-27.2L276.69-27.2Q277.37-27.25 277.44-27.86 277.52-28.47 277.61-28.96L277.61-28.96Q278.35-29.64 278.71-30.57 279.08-31.49 279.37-32.5 279.67-33.5 280.03-34.5 280.4-35.5 281.08-36.28L281.08-36.28 281.08-36.43Q281.08-36.67 280.89-36.74 280.69-36.82 280.69-37.06L280.69-37.06Q280.74-37.11 280.74-37.16L280.74-37.16Q281.33-37.4 281.62-37.96 281.91-38.53 282.5-38.77L282.5-38.77Q283.52-37.94 284.3-37.77 285.08-37.6 286.35-37.5L286.35-37.5Q286.99-36.82 287.06-35.86 287.14-34.91 287.38-33.98L287.38-33.98Q287.77-32.42 288.23-30.93 288.7-29.44 288.94-27.88L288.94-27.88Q289.09-26.95 289.48-26.12 289.87-25.29 290.02-24.41L290.02-24.41Q290.11-23.73 290.02-22.88 289.92-22.02 290.21-21.39L290.21-21.39 290.55-20.61Q290.8-20.07 290.97-19.48 291.14-18.9 291.29-18.31L291.29-18.31Q291.68-16.85 291.99-15.16 292.31-13.48 293-12.11L293-12.11Q293.24-11.62 293.75-11.43 294.26-11.23 294.9-11.16 295.53-11.08 296.14-11.11 296.75-11.13 297.19-11.13L297.19-11.13 297.68-11.13Q297.98-11.13 298.27-11.04L298.27-11.04Q298.46-10.64 298.46-10.35L298.46-10.35Q298.46-9.77 298.07-9.42 297.68-9.08 297.68-8.64L297.68-8.64Q297.68-8.4 297.88-8.11L297.88-8.11Q297.68-8.15 297.29-8.15L297.29-8.15Q296.17-8.15 295.09-7.76L295.09-7.76Q295.49-6.93 296.14-6.37 296.8-5.81 297.54-5.32L297.54-5.32Q298.02-5.71 298.56-5.71L298.56-5.71Q299.15-5.71 299.66-5.44 300.17-5.18 300.76-5.18L300.76-5.18Q301.2-5.18 301.39-5.32L301.39-5.32Q301.78-4.88 302.03-4.42 302.27-3.96 302.66-3.56ZM287.38-11.38L287.38-11.38Q287.28-12.21 287.06-12.57 286.84-12.94 286.7-13.48L286.7-13.48Q286.5-14.16 286.43-14.94 286.35-15.72 286.21-16.46L286.21-16.46Q285.87-18.12 285.45-19.78 285.04-21.44 284.4-23L284.4-23Q284.6-23.29 284.6-23.54L284.6-23.54 284.6-23.68Q284.16-24.17 283.96-24.88 283.77-25.59 283.6-26.29 283.42-27 283.16-27.61 282.89-28.22 282.3-28.61L282.3-28.61Q282.16-28.32 282.16-27.93L282.16-27.93Q282.16-27.59 282.23-27.29 282.3-27 282.3-26.66L282.3-26.66Q281.81-26.42 281.59-25.9 281.37-25.39 280.89-25.1L280.89-25.1Q280.5-23.54 279.76-22.14 279.03-20.75 278.22-19.38 277.42-18.02 276.69-16.63 275.95-15.23 275.51-13.72L275.51-13.72Q274.88-13.28 274.66-12.6 274.44-11.91 274.44-11.23L274.44-11.23Q274.88-10.99 275.44-10.96 276-10.94 276.54-10.94 277.08-10.94 277.57-10.84 278.05-10.74 278.44-10.35L278.44-10.35Q279.08-10.55 279.84-10.62 280.59-10.69 281.08-11.04L281.08-11.04Q282.06-10.69 283.18-10.69L283.18-10.69Q283.77-10.69 284.33-10.79 284.89-10.89 285.43-11.04L285.43-11.04Q285.87-10.94 286.11-10.72 286.35-10.5 286.84-10.55L286.84-10.55Q287.09-10.74 287.14-10.96 287.18-11.18 287.38-11.38Z" opacity="1" transform="matrix(1,0,0,1,0,0)" fill="#f012be" class="wordmark-text-0" data-fill-palette-color="primary" id="text-0"></path></svg></g></svg></g></svg></g></svg></g><g><svg viewBox="0 0 150.2980245702912 149.19177436610414" height="149.19177436610414" width="150.2980245702912"><g><svg xmlns="http://www.w3.org/2000/svg" xmlns:xlink="http://www.w3.org/1999/xlink" version="1.1" x="0" y="0" viewBox="1.741999864578247 2 61.00300216674805 60.55399703979492" style="enable-background:new 0 0 64 64;" xml:space="preserve" height="149.19177436610414" width="150.2980245702912" class="icon-icon-0" data-fill-palette-color="accent" id="icon-0"><path d="M10.312 45.669c-0.524 0.47-1.033 0.957-1.527 1.46-0.144 0.146-0.283 0.297-0.425 0.446-0.362 0.382-0.716 0.773-1.062 1.173-0.15 0.174-0.304 0.344-0.451 0.52-0.407 0.491-0.8 0.997-1.181 1.513-0.173 0.234-0.34 0.474-0.508 0.713-0.268 0.382-0.527 0.772-0.781 1.167-0.134 0.209-0.273 0.414-0.403 0.627C3.968 53.3 3.961 53.31 3.954 53.322c-0.003 0.004-0.003 0.01-0.005 0.014-0.825 1.358-1.568 2.78-2.207 4.27l1.838 0.788c0.222-0.518 0.473-1.018 0.72-1.52l0.715 4.291C5.094 61.646 5.511 62 6 62h4c0.127 0 0.253-0.024 0.372-0.071l4.751-1.901 6.735 0.962c0.459 0.068 0.899-0.19 1.07-0.618l1.878-4.697 7.723-4.827c0.25-0.156 0.418-0.415 0.46-0.707l1-7c0.073-0.507-0.25-0.987-0.747-1.112l-3.845-0.961-2.361-1.49c0.164-0.031 0.328-0.064 0.493-0.092 0.528-0.091 1.057-0.167 1.589-0.232 0.257-0.031 0.515-0.061 0.774-0.086 0.525-0.051 1.052-0.087 1.579-0.112 0.273-0.013 0.547-0.024 0.822-0.03 0.546-0.012 1.092-0.01 1.639 0.005 0.202 0.006 0.404 0.011 0.606 0.021 0.014 0.001 0.029 0.001 0.043 0.002 0.558 0.027 1.116 0.074 1.673 0.13 0.215 0.022 0.43 0.039 0.644 0.066 0.553 0.067 1.103 0.157 1.653 0.253 0.217 0.038 0.437 0.068 0.653 0.111 0.57 0.112 1.135 0.25 1.7 0.393 0.724 0.185 1.44 0.393 2.147 0.627 0.31 0.103 0.618 0.211 0.925 0.323 0.407 0.149 0.812 0.302 1.213 0.467 0.308 0.127 0.611 0.264 0.914 0.401 0.111 0.05 0.221 0.103 0.332 0.154l-3.709 1.06c-0.286 0.082-0.521 0.287-0.641 0.559-0.12 0.272-0.112 0.584 0.021 0.85l0.678 1.355-3.49 3.49c-0.391 0.391-0.391 1.023 0 1.414l4 4c0.212 0.212 0.503 0.321 0.806 0.288 0.298-0.029 0.567-0.191 0.733-0.44L48.535 49H51v3.419l-6.496 3.712c-0.077 0.044-0.148 0.098-0.211 0.161l-2 2c-0.337 0.337-0.39 0.865-0.125 1.262l2 3 1.664-1.109-1.545-2.318 1.326-1.326 6.884-3.934C52.808 53.69 53 53.359 53 53v-5c0-0.552-0.448-1-1-1h-4c-0.334 0-0.646 0.167-0.832 0.445l-3.323 4.985L41.414 50l3.293-3.293c0.304-0.304 0.38-0.769 0.188-1.154l-0.461-0.922 4.597-1.313c0.039 0.023 0.08 0.042 0.119 0.065 0.153 0.09 0.298 0.19 0.45 0.282 0.486 0.296 0.97 0.597 1.442 0.919 0.431 0.295 0.851 0.603 1.266 0.917 0.111 0.084 0.226 0.16 0.336 0.245 3.397 2.643 6.239 5.949 8.346 9.739l0.004-0.002c0.001 0.002 0.002 0.003 0.003 0.005l1.748-0.971c-1.154-2.078-2.512-4.001-4.033-5.758-0.028-0.032-0.059-0.062-0.087-0.095-0.476-0.545-0.965-1.075-1.473-1.586-0.108-0.109-0.223-0.21-0.332-0.318-0.435-0.426-0.874-0.847-1.33-1.248-0.173-0.152-0.354-0.295-0.53-0.444-0.404-0.342-0.809-0.682-1.228-1.004-0.228-0.175-0.465-0.339-0.697-0.509-0.015-0.011-0.029-0.021-0.044-0.032l1.922-4.614 2.99-6.478 2.992-5.984c0.122-0.244 0.139-0.528 0.047-0.785-0.092-0.257-0.286-0.465-0.535-0.576l-0.271-0.12 1.759-3.519c0.226-0.451 0.08-1-0.34-1.279l-3-2-3-2c-0.239-0.16-0.536-0.209-0.812-0.134-0.277 0.073-0.509 0.263-0.638 0.519l-2.345 4.691-0.354-0.157c-0.491-0.218-1.062-0.012-1.301 0.466l-3 6-3 6c-0.005 0.01-0.004 0.02-0.008 0.03-0.004 0.009-0.013 0.015-0.016 0.023l-1.691 3.947-1.406-7.731C40.897 29.346 40.483 29 40 29h-1.246l-1.793-6.275C36.839 22.296 36.446 22 36 22h-0.153l-1.861-11.165c-0.005-0.032-0.023-0.058-0.032-0.089C34.574 10.406 35 9.756 35 9V7c0-1.103-0.897-2-2-2V2h-2v3c-1.103 0-2 0.897-2 2v2c0 0.756 0.426 1.406 1.045 1.747-0.008 0.031-0.026 0.057-0.032 0.089L28.153 22H28c-0.446 0-0.839 0.296-0.961 0.725L25.246 29H24c-0.483 0-0.897 0.346-0.984 0.821l-1.441 7.924-3.647-9.117-4-10c-0.005-0.013-0.017-0.022-0.023-0.035-0.042-0.094-0.099-0.179-0.168-0.257-0.016-0.018-0.03-0.037-0.047-0.054-0.01-0.009-0.016-0.021-0.026-0.03l-9-8c-0.283-0.251-0.683-0.321-1.036-0.181-0.352 0.141-0.594 0.468-0.625 0.846l-1 12c-0.001 0.013 0.002 0.026 0.002 0.039-0.001 0.024 0.003 0.048 0.003 0.072 0.003 0.104 0.021 0.206 0.055 0.302 0.005 0.014 0.002 0.028 0.008 0.041l4 10 4.744 11.861c-0.075 0.065-0.15 0.129-0.225 0.195C10.498 45.508 10.404 45.587 10.312 45.669zM26.78 37.57C28.007 35.972 29.922 35 32 35c1.921 0 3.708 0.837 4.937 2.233-0.098-0.011-0.195-0.013-0.292-0.023-0.284-0.03-0.567-0.059-0.852-0.082-0.35-0.029-0.702-0.051-1.054-0.069-0.185-0.01-0.371-0.024-0.555-0.03-0.196-0.007-0.392-0.005-0.588-0.008C33.397 37.017 33.2 37 33 37c-0.191 0-0.379 0.018-0.57 0.021-0.088 0.002-0.177-0.002-0.265 0-0.348 0.008-0.694 0.029-1.041 0.048-0.352 0.019-0.704 0.038-1.055 0.068-0.158 0.014-0.316 0.026-0.474 0.042-0.326 0.033-0.651 0.078-0.976 0.12-0.29 0.037-0.581 0.068-0.87 0.113-0.157 0.024-0.313 0.057-0.47 0.084C27.114 37.524 26.946 37.539 26.78 37.57zM28.757 42.97l3.125 0.781-0.807 5.647-7.605 4.753c-0.18 0.113-0.32 0.28-0.399 0.477l-1.708 4.271-6.222-0.889c-0.175-0.025-0.351-0.004-0.513 0.061L9.808 60h-2.96l-0.992-5.952c0.011-0.017 0.022-0.033 0.033-0.05 0.308-0.491 0.632-0.97 0.964-1.441 0.158-0.224 0.319-0.445 0.482-0.664 0.312-0.42 0.633-0.832 0.964-1.235 0.152-0.185 0.308-0.367 0.464-0.549 0.347-0.403 0.704-0.798 1.07-1.182 0.133-0.14 0.266-0.281 0.402-0.418 0.464-0.47 0.94-0.928 1.431-1.368 0.071-0.063 0.144-0.124 0.215-0.186 0.326-0.286 0.666-0.556 1.003-0.829 0.507-0.41 1.026-0.801 1.555-1.178 0.172-0.123 0.342-0.249 0.517-0.368 0.553-0.378 1.12-0.733 1.694-1.075 0.152-0.09 0.299-0.187 0.452-0.275 0.707-0.405 1.428-0.784 2.166-1.134 0.055-0.026 0.111-0.052 0.167-0.078 0.741-0.347 1.496-0.666 2.265-0.956 0.405-0.153 0.819-0.286 1.231-0.422 0.456-0.151 0.916-0.289 1.378-0.419l4.159 2.625C28.556 42.902 28.654 42.944 28.757 42.97zM44.018 38.829l1.483-3.46 7.216 3.608-1.407 3.378c-0.215-0.138-0.437-0.26-0.654-0.392-0.219-0.133-0.438-0.267-0.66-0.396-0.088-0.051-0.173-0.106-0.261-0.156-0.025-0.014-0.048-0.031-0.073-0.045-0.001 0-0.002 0-0.003-0.001-0.346-0.195-0.699-0.373-1.051-0.555-0.152-0.079-0.302-0.161-0.456-0.238-0.585-0.292-1.178-0.566-1.778-0.824-0.05-0.022-0.1-0.046-0.15-0.067C45.498 39.374 44.765 39.085 44.018 38.829zM58.306 24.153l-1.443-0.641 1.525-3.051 1.323 0.882L58.306 24.153zM55.388 18.46l1.323 0.882-1.678 3.356-1.443-0.641L55.388 18.46zM51.282 23.673c0.052 0.055 0.098 0.115 0.164 0.159l3 2 3 2c0.134 0.09 0.288 0.134 0.445 0.152l-1.357 2.714-2.39-1.062-4.78-2.125L51.282 23.673zM48.467 29.302l1.2 0.533 6 2.667-2.143 4.642-7.183-3.591L48.467 29.302zM31 7h2l0.001 2H31V7zM31.847 12h0.306l1.667 10h-3.639L31.847 12zM28.754 24H29h6 0.246l1.429 5h-9.349L28.754 24zM24.834 31H26h12 1.166l1.239 6.816c-0.102-0.023-0.206-0.037-0.308-0.058-0.165-0.035-0.33-0.071-0.496-0.104C38.134 34.817 35.22 33 32 33c-3.429 0-6.517 2.033-7.877 5.179-0.14 0.038-0.277 0.083-0.416 0.122-0.07 0.02-0.14 0.034-0.21 0.054L24.834 31zM19.981 39.592c-0.398 0.164-0.791 0.337-1.181 0.516-0.133 0.061-0.267 0.12-0.4 0.183-0.668 0.317-1.325 0.654-1.969 1.012-0.07 0.039-0.137 0.08-0.207 0.119-0.016 0.009-0.032 0.019-0.049 0.028-0.027 0.015-0.053 0.031-0.079 0.046-0.571 0.326-1.131 0.669-1.681 1.027-0.069 0.045-0.14 0.089-0.209 0.134-0.602 0.399-1.191 0.815-1.766 1.252L8.3 33.557l8.143-3.257 3.69 9.224C20.081 39.545 20.032 39.571 19.981 39.592zM4.3 23.557l8.143-3.257 3.257 8.142L7.557 31.7 4.3 23.557zM4.831 13.076l6.296 5.596L4.131 21.47 4.831 13.076z" fill="#f9c9cb" data-fill-palette-color="accent"></path><path d="M10 23c-1.654 0-3 1.346-3 3s1.346 3 3 3 3-1.346 3-3S11.654 23 10 23zM10 27c-0.551 0-1-0.449-1-1s0.449-1 1-1 1 0.449 1 1S10.551 27 10 27z" fill="#f9c9cb" data-fill-palette-color="accent"></path></svg></g></svg></g></svg></g></svg></g></svg></g><g><path d="M0 123.6c0-68.262 55.338-123.6 123.6-123.6 51.02 0 94.82 30.913 113.692 75.03h-1.591c-18.782-43.29-61.906-73.57-112.101-73.57-67.456 0-122.14 54.684-122.14 122.14 0 67.456 54.684 122.14 122.14 122.14 50.196 0 93.319-30.28 112.101-73.57l1.591 0c-18.872 44.117-62.672 75.03-113.692 75.03-68.262 0-123.6-55.338-123.6-123.6z" fill="#124948" stroke="transparent" data-fill-palette-color="tertiary"></path></g></svg></g><defs></defs></svg><rect width="395.52" height="247.2" fill="none" stroke="none" visibility="hidden"></rect></g></svg></g></svg>